<?xml version="1.0" standalone="yes"?>
<svg width="32" height="32">
<path style="stroke:#bbbbbb; fill:none;" d="M15 2L14 3"/>
<path style="stroke:#000000; fill:none;" d="M17 4C16.6748 8.53955 17.0405 12.1015 22 13L19 11M1 7L6 5M31 6C31 11.6423 33.5972 26.196 29.3966 30.3966C24.7641 35.0291 7.29775 32 1 32"/>
<path style="stroke:#020202; fill:none;" d="M8 9L9 9M21 15L24 14M16 15L17 15"/>
<path style="stroke:#000000; fill:none;" d="M24 15C26.355 30.0363 10.2444 31.0906 9 16M15 18L16 18M18 18L18 19"/>
<path style="stroke:#8f8f8f; fill:none;" d="M21 18L20 19"/>
<path style="stroke:#020202; fill:none;" d="M7 19L6 21"/>
<path style="stroke:#1c1c1c; fill:none;" d="M16 20L17 21"/>
<path style="stroke:#080808; fill:none;" d="M27 24L27 25"/>
<path style="stroke:#020202; fill:none;" d="M30 24L30 25"/>
<path style="stroke:#040404; fill:none;" d="M6 25L7 26"/>
<path style="stroke:#020202; fill:none;" d="M18 25L19 25M26 25L24 28"/>
<path style="stroke:#000000; fill:none;" d="M15 26L19 28"/>
<path style="stroke:#a5a5a5; fill:none;" d="M8 29L9 29"/>
<path style="stroke:#1a1a1a; fill:none;" d="M16 30L17 30"/>
<path style="stroke:#000000; fill:none;" d="M0 32L1 32"/>
</svg>
